# xmcd CD database file
#
# Track frame offsets:
#	150
#	27877
#	48265
#	76925
#	96208
#	119074
#	146454
#	155666
#	179200
#	228560
#	272815
#	281361
#
# Disc length: 4526 seconds
#
# Revision: 0
# Processed by: cddbd v1.4PL0 Copyright (c) Steve Scherf et al.
# Submitted via: CDex 1.50Beta5
#
DISCID=aa11ac0c
DTITLE=Maggie Bell - Live At The Rainbow 1974
DYEAR=1974
DGENRE=Blues
TTITLE0=Coming On Strong
TTITLE1=Wishing Well
TTITLE2=As The Years Go Passing By
TTITLE3=I Was In Chains
TTITLE4=Suicide Sal
TTITLE5=I Saw Him Standing There
TTITLE6=The Preacher
TTITLE7=Penicillin Blues
TTITLE8=Soul Medley
TTITLE9=The Ghetto
TTITLE10=Aileem Mochree
TTITLE11=Shout
EXTD=YEAR: 1974
EXTT0=
EXTT1=
EXTT2=
EXTT3=
EXTT4=
EXTT5=
EXTT6=
EXTT7=
EXTT8=
EXTT9=
EXTT10=
EXTT11=
PLAYORDER=
